<svg xmlns="http://www.w3.org/2000/svg" width="400" height="400" viewBox="0 0 105.833 105.833"><path d="m-7.716 67.103-2.224 2.224-2.225 2.225-2.224 2.224L-16.613 76l-2.225 2.225 2.225 2.224 2.224 2.225 2.224-2.225 2.225 2.225 2.224-2.225 2.225-2.224L-7.715 76l2.224-2.224 2.224 2.225 2.224 2.224-2.224 2.224 2.224 2.225 2.225-2.225 2.224-2.224L1.182 76l-2.225-2.224-2.224-2.224-2.224-2.225-2.225-2.224zm6.673 15.571-2.224-2.224-2.224 2.224-2.225 2.224-2.224-2.224-2.225-2.224-2.224 2.224 2.224 2.224 2.225 2.225 2.224 2.224 2.225-2.224 2.224-2.225 2.224-2.224zm-8.897-8.898L-7.716 76l-2.224 2.225L-12.164 76l2.224-2.224z" style="opacity:1;fill:#fff;stroke-width:.09071;fill-opacity:1" transform="translate(89.627 -319.264) scale(4.75783)"/></svg>