<svg xmlns="http://www.w3.org/2000/svg" width="400" height="400" viewBox="0 0 105.833 105.833"><path d="m-7.716 67.103 2.225 2.224-2.225 2.225-2.224-2.225z" style="opacity:1;fill:#be3729;stroke-width:.09071" transform="translate(89.627 -319.264) scale(4.75783)"/><path d="m-9.94 69.327 2.224 2.225-2.224 2.224-2.225-2.224z" style="opacity:1;fill:#dc2919;stroke-width:.09071" transform="translate(89.627 -319.264) scale(4.75783)"/><path d="m-12.165 71.552 2.225 2.224-2.225 2.225-2.224-2.225z" style="opacity:1;fill:#e54b3a;stroke-width:.09071" transform="translate(89.627 -319.264) scale(4.75783)"/><path d="m-14.389 73.776 2.224 2.225-2.224 2.224L-16.613 76z" style="opacity:1;fill:#e56934;stroke-width:.09071" transform="translate(89.627 -319.264) scale(4.75783)"/><path d="m-16.613 76 2.224 2.225-2.224 2.224-2.225-2.224z" style="opacity:1;fill:#e57c21;stroke-width:.09071" transform="translate(89.627 -319.264) scale(4.75783)"/><path d="m-14.389 78.225 2.224 2.224-2.224 2.225-2.224-2.225z" style="opacity:1;fill:#e58a21;stroke-width:.09071" transform="translate(89.627 -319.264) scale(4.75783)"/><path d="m-12.165 80.45 2.225 2.224-2.225 2.224-2.224-2.224z" style="opacity:1;fill:#f19a11;stroke-width:.09071" transform="translate(89.627 -319.264) scale(4.75783)"/><path d="m-9.94 82.674 2.224 2.224-2.224 2.225-2.225-2.225z" style="opacity:1;fill:#f0ae0e;stroke-width:.09071" transform="translate(89.627 -319.264) scale(4.75783)"/><path d="m-7.716 84.898 2.225 2.225-2.225 2.224-2.224-2.224z" style="opacity:1;fill:#f0c30e;stroke-width:.09071" transform="translate(89.627 -319.264) scale(4.75783)"/><path d="m-5.491 82.674 2.224 2.224-2.224 2.225-2.225-2.225z" style="opacity:1;fill:#f19a11;stroke-width:.09071" transform="translate(89.627 -319.264) scale(4.75783)"/><path d="m-5.491 82.674 2.224 2.224-2.224 2.225-2.225-2.225z" style="opacity:1;fill:#f0ae0e;stroke-width:.09071" transform="translate(89.627 -319.264) scale(4.75783)"/><path d="m-3.267 80.45 2.224 2.224-2.224 2.224-2.224-2.224z" style="opacity:1;fill:#f19a11;stroke-width:.09071" transform="translate(89.627 -319.264) scale(4.75783)"/><path d="m-9.94 78.225 2.224 2.224-2.224 2.225-2.225-2.225zm8.897 0 2.225 2.224-2.225 2.225-2.224-2.225z" style="opacity:1;fill:#e58a21;stroke-width:.09071" transform="translate(89.627 -319.264) scale(4.75783)"/><path d="m-12.165 76 2.225 2.225-2.225 2.224-2.224-2.224zm4.449 0 2.225 2.225-2.225 2.224-2.224-2.224zm8.898 0 2.224 2.225-2.224 2.224-2.225-2.224z" style="opacity:1;fill:#e57c21;stroke-width:.09071" transform="translate(89.627 -319.264) scale(4.75783)"/><path d="m-1.043 73.776 2.225 2.225-2.225 2.224-2.224-2.224z" style="opacity:1;fill:#e56934;stroke-width:.09071" transform="translate(89.627 -319.264) scale(4.75783)"/><path d="m-7.716 71.552 2.225 2.224-2.225 2.225-2.224-2.225zM-3.267 71.552l2.224 2.224-2.224 2.225-2.224-2.225z" style="opacity:1;fill:#e54b3a;stroke-width:.09071" transform="translate(89.627 -319.264) scale(4.75783)"/><path d="m-5.491 69.327 2.224 2.225-2.224 2.224-2.225-2.224z" style="opacity:1;fill:#dc2919;stroke-width:.09071" transform="translate(89.627 -319.264) scale(4.75783)"/></svg>