<svg xmlns="http://www.w3.org/2000/svg" xmlns:xlink="http://www.w3.org/1999/xlink" width="400" height="400" viewBox="0 0 105.833 105.833"><defs><linearGradient id="i"><stop offset="0" style="stop-color:#1a1a1a;stop-opacity:1"/><stop offset="1" style="stop-color:#333;stop-opacity:1"/></linearGradient><linearGradient id="h"><stop offset="0" style="stop-color:#262626;stop-opacity:1"/><stop offset="1" style="stop-color:#404040;stop-opacity:1"/></linearGradient><linearGradient id="g"><stop offset="0" style="stop-color:#404040;stop-opacity:1"/><stop offset="1" style="stop-color:#595959;stop-opacity:1"/></linearGradient><linearGradient id="f"><stop offset="0" style="stop-color:#595959;stop-opacity:1"/><stop offset="1" style="stop-color:#737373;stop-opacity:1"/></linearGradient><linearGradient id="e"><stop offset="0" style="stop-color:#737373;stop-opacity:1"/><stop offset="1" style="stop-color:#8c8c8c;stop-opacity:1"/></linearGradient><linearGradient id="d"><stop offset="0" style="stop-color:#8c8c8c;stop-opacity:1"/><stop offset="1" style="stop-color:#a6a6a6;stop-opacity:1"/></linearGradient><linearGradient id="c"><stop offset=".001" style="stop-color:#a6a6a6;stop-opacity:1"/><stop offset="1" style="stop-color:#bfbfbf;stop-opacity:1"/></linearGradient><linearGradient id="b"><stop offset="0" style="stop-color:#bfbfbf;stop-opacity:1"/><stop offset="1" style="stop-color:#d9d9d9;stop-opacity:1"/></linearGradient><linearGradient id="a"><stop offset="0" style="stop-color:#d9d9d9;stop-opacity:1"/><stop offset="1" style="stop-color:#f2f2f2;stop-opacity:1"/></linearGradient><linearGradient xlink:href="#a" id="o" x1="-7.716" x2="-7.716" y1="89.347" y2="84.898" gradientUnits="userSpaceOnUse"/><linearGradient xlink:href="#b" id="p" x1="-5.491" x2="-5.491" y1="87.123" y2="82.674" gradientUnits="userSpaceOnUse"/><linearGradient xlink:href="#b" id="n" x1="-9.94" x2="-9.94" y1="87.123" y2="82.674" gradientUnits="userSpaceOnUse"/><linearGradient xlink:href="#c" id="q" x1="-3.267" x2="-3.267" y1="84.898" y2="80.45" gradientUnits="userSpaceOnUse"/><linearGradient xlink:href="#c" id="m" x1="-3.267" x2="-3.267" y1="84.898" y2="80.45" gradientTransform="translate(47.292 -319.264) scale(4.75783)" gradientUnits="userSpaceOnUse"/><linearGradient xlink:href="#d" id="l" x1="-14.389" x2="-14.389" y1="82.674" y2="78.225" gradientUnits="userSpaceOnUse"/><linearGradient xlink:href="#d" id="v" x1="-14.389" x2="-14.389" y1="82.674" y2="78.225" gradientTransform="translate(110.79 -319.264) scale(4.75783)" gradientUnits="userSpaceOnUse"/><linearGradient xlink:href="#d" id="r" x1="-14.389" x2="-14.389" y1="82.674" y2="78.225" gradientTransform="translate(153.127 -319.264) scale(4.75783)" gradientUnits="userSpaceOnUse"/><linearGradient xlink:href="#e" id="k" x1="-16.613" x2="-16.613" y1="80.449" y2="76" gradientUnits="userSpaceOnUse"/><linearGradient xlink:href="#e" id="w" x1="-16.613" x2="-16.613" y1="80.449" y2="76" gradientTransform="translate(110.792 -319.264) scale(4.75783)" gradientUnits="userSpaceOnUse"/><linearGradient xlink:href="#e" id="x" x1="-16.613" x2="-16.613" y1="80.449" y2="76" gradientTransform="translate(131.955 -319.26) scale(4.75783)" gradientUnits="userSpaceOnUse"/><linearGradient xlink:href="#e" id="y" x1="-16.613" x2="-16.613" y1="80.449" y2="76" gradientTransform="translate(174.29 -319.26) scale(4.75783)" gradientUnits="userSpaceOnUse"/><linearGradient xlink:href="#f" id="s" x1="-1.042" x2="-1.043" y1="78.225" y2="73.776" gradientUnits="userSpaceOnUse"/><linearGradient xlink:href="#f" id="z" x1="-1.042" x2="-1.043" y1="78.225" y2="73.776" gradientTransform="translate(26.127 -319.264) scale(4.75783)" gradientUnits="userSpaceOnUse"/><linearGradient xlink:href="#g" id="t" x1="-3.267" x2="-3.267" y1="76.001" y2="71.552" gradientUnits="userSpaceOnUse"/><linearGradient xlink:href="#g" id="A" x1="-3.267" x2="-3.267" y1="76.001" y2="71.552" gradientTransform="translate(68.464 -319.264) scale(4.75783)" gradientUnits="userSpaceOnUse"/><linearGradient xlink:href="#g" id="B" x1="-3.267" x2="-3.267" y1="76.001" y2="71.552" gradientTransform="translate(47.299 -319.264) scale(4.75783)" gradientUnits="userSpaceOnUse"/><linearGradient xlink:href="#h" id="u" x1="-5.491" x2="-5.491" y1="73.776" y2="69.327" gradientUnits="userSpaceOnUse"/><linearGradient xlink:href="#h" id="C" x1="-5.491" x2="-5.491" y1="73.776" y2="69.327" gradientTransform="translate(68.46 -319.264) scale(4.75783)" gradientUnits="userSpaceOnUse"/><linearGradient xlink:href="#i" id="j" x1="-7.716" x2="-7.716" y1="71.552" y2="67.103" gradientUnits="userSpaceOnUse"/></defs><path d="m-7.716 67.103 2.225 2.224-2.225 2.225-2.224-2.225z" style="opacity:1;fill:url(#j);stroke-width:.09071;fill-opacity:1" transform="translate(89.627 -319.264) scale(4.75783)"/><path d="m-16.613 76 2.224 2.225-2.224 2.224-2.225-2.224z" style="opacity:1;fill:url(#k);stroke-width:.09071;fill-opacity:1" transform="translate(89.627 -319.264) scale(4.75783)"/><path d="m-14.389 78.225 2.224 2.224-2.224 2.225-2.224-2.225z" style="opacity:1;fill:url(#l);stroke-width:.09071;fill-opacity:1" transform="translate(89.627 -319.264) scale(4.75783)"/><path d="m31.748 63.503 10.581 10.582-10.581 10.581-10.581-10.581Z" style="opacity:1;fill:url(#m);fill-opacity:1;stroke-width:.431583"/><path d="m-9.94 82.674 2.224 2.224-2.224 2.225-2.225-2.225z" style="opacity:1;fill:url(#n);stroke-width:.09071;fill-opacity:1" transform="translate(89.627 -319.264) scale(4.75783)"/><path d="m-7.716 84.898 2.225 2.225-2.225 2.224-2.224-2.224z" style="opacity:1;fill:url(#o);stroke-width:.09071;fill-opacity:1" transform="translate(89.627 -319.264) scale(4.75783)"/><path d="m-5.491 82.674 2.224 2.224-2.224 2.225-2.225-2.225z" style="opacity:1;fill:#f19a11;stroke-width:.09071" transform="translate(89.627 -319.264) scale(4.75783)"/><path d="m-5.491 82.674 2.224 2.224-2.224 2.225-2.225-2.225z" style="opacity:1;fill:url(#p);stroke-width:.09071;fill-opacity:1" transform="translate(89.627 -319.264) scale(4.75783)"/><path d="m-3.267 80.45 2.224 2.224-2.224 2.224-2.224-2.224z" style="opacity:1;fill:url(#q);stroke-width:.09071;fill-opacity:1" transform="translate(89.627 -319.264) scale(4.75783)"/><path d="M84.667 52.917 95.248 63.5 84.667 74.085 74.086 63.499Z" style="opacity:1;fill:url(#r);fill-opacity:1;stroke-width:.431583"/><path d="m-1.043 73.776 2.225 2.225-2.225 2.224-2.224-2.224z" style="opacity:1;fill:url(#s);stroke-width:.09071;fill-opacity:1" transform="translate(89.627 -319.264) scale(4.75783)"/><path d="m-3.267 71.552 2.224 2.224-2.224 2.225-2.224-2.225z" style="opacity:1;fill:url(#t);stroke-width:.09071;fill-opacity:1" transform="translate(89.627 -319.264) scale(4.75783)"/><path d="m-5.491 69.327 2.224 2.225-2.224 2.224-2.225-2.224z" style="opacity:1;fill:url(#u);stroke-width:.09071;fill-opacity:1" transform="translate(89.627 -319.264) scale(4.75783)"/><path d="M42.33 52.917 52.91 63.5 42.33 74.085 31.747 63.499Z" style="opacity:1;fill:url(#v);fill-opacity:1;stroke-width:.431583"/><path d="m31.75 42.331 10.582 10.586L31.75 63.5 21.164 52.917Z" style="opacity:1;fill:url(#w);fill-opacity:1;stroke-width:.431583"/><path d="m52.913 42.336 10.582 10.586-10.582 10.581-10.586-10.581Z" style="opacity:1;fill:url(#x);fill-opacity:1;stroke-width:.431583"/><path d="m95.248 42.336 10.582 10.586-10.582 10.581-10.586-10.581Z" style="opacity:1;fill:url(#y);fill-opacity:1;stroke-width:.431583"/><path d="M21.164 31.75 31.75 42.336 21.164 52.917 10.583 42.336Z" style="opacity:1;fill:url(#z);fill-opacity:1;stroke-width:.431583"/><path d="M52.92 21.168 63.502 31.75 52.92 42.336 42.34 31.75Z" style="opacity:1;fill:url(#A);fill-opacity:1;stroke-width:.431583"/><path d="M31.755 21.168 42.337 31.75 31.755 42.336 21.174 31.75Z" style="opacity:1;fill:url(#B);fill-opacity:1;stroke-width:.431583"/><path d="m42.334 10.582 10.582 10.586L42.334 31.75 31.748 21.168Z" style="opacity:1;fill:url(#C);fill-opacity:1;stroke-width:.431583"/></svg>