<?xml version="1.0" encoding="UTF-8" standalone="no"?>
<!-- Created with Inkscape (http://www.inkscape.org/) -->

<svg
   width="1000mm"
   height="1000mm"
   viewBox="0 0 1000 1000"
   version="1.1"
   id="svg5"
   xml:space="preserve"
   inkscape:version="1.2.2 (b0a8486541, 2022-12-01)"
   sodipodi:docname="pike-gradient.svg"
   inkscape:export-filename="../../../Git/asteroidos.org/assets/public/img/pike.png"
   inkscape:export-xdpi="7.6199999"
   inkscape:export-ydpi="7.6199999"
   xmlns:inkscape="http://www.inkscape.org/namespaces/inkscape"
   xmlns:sodipodi="http://sodipodi.sourceforge.net/DTD/sodipodi-0.dtd"
   xmlns:xlink="http://www.w3.org/1999/xlink"
   xmlns="http://www.w3.org/2000/svg"
   xmlns:svg="http://www.w3.org/2000/svg"><sodipodi:namedview
     id="namedview7"
     pagecolor="#ffffff"
     bordercolor="#000000"
     borderopacity="0.25"
     inkscape:showpageshadow="2"
     inkscape:pageopacity="0.0"
     inkscape:pagecheckerboard="0"
     inkscape:deskcolor="#d1d1d1"
     inkscape:document-units="mm"
     showgrid="false"
     showguides="true"
     inkscape:zoom="0.17799782"
     inkscape:cx="1724.7402"
     inkscape:cy="1834.2921"
     inkscape:window-width="1920"
     inkscape:window-height="1023"
     inkscape:window-x="0"
     inkscape:window-y="33"
     inkscape:window-maximized="1"
     inkscape:current-layer="svg5" /><defs
     id="defs2"><inkscape:path-effect
       effect="mirror_symmetry"
       start_point="374.39081,879.21656"
       end_point="374.39081,890.63969"
       center_point="374.39081,884.92813"
       id="path-effect17603"
       is_visible="true"
       lpeversion="1.2"
       lpesatellites=""
       mode="vertical"
       discard_orig_path="false"
       fuse_paths="false"
       oposite_fuse="false"
       split_items="false"
       split_open="false"
       link_styles="false" /><linearGradient
       inkscape:collect="always"
       id="linearGradient17132"><stop
         style="stop-color:#4e4e4e;stop-opacity:1;"
         offset="0"
         id="stop17128" /><stop
         style="stop-color:#3b3b3b;stop-opacity:1;"
         offset="0.2770102"
         id="stop17136" /><stop
         style="stop-color:#2f2f2f;stop-opacity:1;"
         offset="0.6411342"
         id="stop17276" /><stop
         style="stop-color:#4a4a4a;stop-opacity:1;"
         offset="1"
         id="stop17130" /></linearGradient><inkscape:path-effect
       effect="mirror_symmetry"
       start_point="500,240.1063"
       end_point="500,732.97804"
       center_point="500,486.54217"
       id="path-effect17116"
       is_visible="true"
       lpeversion="1.2"
       lpesatellites=""
       mode="free"
       discard_orig_path="false"
       fuse_paths="false"
       oposite_fuse="false"
       split_items="false"
       split_open="false"
       link_styles="false" /><inkscape:path-effect
       effect="mirror_symmetry"
       start_point="302.38377,71.11372"
       end_point="302.38377,928.88628"
       center_point="302.38377,500"
       id="path-effect17110"
       is_visible="true"
       lpeversion="1.2"
       lpesatellites=""
       mode="vertical"
       discard_orig_path="false"
       fuse_paths="false"
       oposite_fuse="false"
       split_items="false"
       split_open="false"
       link_styles="false" /><inkscape:path-effect
       effect="mirror_symmetry"
       start_point="298.3094,73.789986"
       end_point="298.3094,500.00001"
       center_point="298.3094,286.895"
       id="path-effect16751"
       is_visible="true"
       lpeversion="1.2"
       lpesatellites=""
       mode="horizontal"
       discard_orig_path="false"
       fuse_paths="false"
       oposite_fuse="false"
       split_items="false"
       split_open="false"
       link_styles="false" /><linearGradient
       inkscape:collect="always"
       id="linearGradient15708"><stop
         style="stop-color:#8a8a8a;stop-opacity:1;"
         offset="0"
         id="stop15704" /><stop
         style="stop-color:#414141;stop-opacity:1;"
         offset="0.19807872"
         id="stop16059" /><stop
         style="stop-color:#4e4e4e;stop-opacity:1;"
         offset="0.49647629"
         id="stop15706" /><stop
         style="stop-color:#363636;stop-opacity:1;"
         offset="0.79796755"
         id="stop16753" /><stop
         style="stop-color:#4b4b4b;stop-opacity:1;"
         offset="0.99473971"
         id="stop16755" /></linearGradient><linearGradient
       inkscape:collect="always"
       id="linearGradient15226"><stop
         style="stop-color:#7f7f7f;stop-opacity:1;"
         offset="0.0020065"
         id="stop15218" /><stop
         style="stop-color:#b9b9b9;stop-opacity:0;"
         offset="1"
         id="stop15224" /></linearGradient><linearGradient
       inkscape:collect="always"
       id="linearGradient13553"><stop
         style="stop-color:#dbdbdb;stop-opacity:1;"
         offset="0"
         id="stop13545" /><stop
         style="stop-color:#b7b7b7;stop-opacity:1;"
         offset="0.2908707"
         id="stop13547" /><stop
         style="stop-color:#ababab;stop-opacity:1;"
         offset="0.47797444"
         id="stop13549" /><stop
         style="stop-color:#b9b9b9;stop-opacity:1;"
         offset="1"
         id="stop13551" /></linearGradient><linearGradient
       inkscape:collect="always"
       id="linearGradient9878"><stop
         style="stop-color:#7a7a7a;stop-opacity:1;"
         offset="0"
         id="stop9870" /><stop
         style="stop-color:#535353;stop-opacity:1;"
         offset="0.2908707"
         id="stop9872" /><stop
         style="stop-color:#555555;stop-opacity:1;"
         offset="0.47797444"
         id="stop9874" /><stop
         style="stop-color:#c1c1c1;stop-opacity:1;"
         offset="1"
         id="stop9876" /></linearGradient><inkscape:path-effect
       effect="mirror_symmetry"
       start_point="500,54.148409"
       end_point="500,240.91645"
       center_point="500,147.53243"
       id="path-effect9856"
       is_visible="true"
       lpeversion="1.2"
       lpesatellites=""
       mode="free"
       discard_orig_path="false"
       fuse_paths="false"
       oposite_fuse="false"
       split_items="false"
       split_open="false"
       link_styles="false" /><linearGradient
       inkscape:collect="always"
       id="linearGradient7437"><stop
         style="stop-color:#5f5f5f;stop-opacity:1;"
         offset="0"
         id="stop7431" /><stop
         style="stop-color:#3a3a3a;stop-opacity:1;"
         offset="0.22097644"
         id="stop17991" /><stop
         style="stop-color:#2b2b2b;stop-opacity:1;"
         offset="0.42915049"
         id="stop8681" /><stop
         style="stop-color:#161616;stop-opacity:1;"
         offset="0.68921977"
         id="stop7433" /><stop
         style="stop-color:#1f1f1f;stop-opacity:1;"
         offset="1"
         id="stop7435" /></linearGradient><inkscape:path-effect
       effect="mirror_symmetry"
       start_point="735.41565,54.148409"
       end_point="735.41565,240.91645"
       center_point="735.41565,147.53243"
       id="path-effect7426"
       is_visible="true"
       lpeversion="1.2"
       lpesatellites=""
       mode="vertical"
       discard_orig_path="false"
       fuse_paths="false"
       oposite_fuse="false"
       split_items="false"
       split_open="false"
       link_styles="false" /><inkscape:path-effect
       effect="mirror_symmetry"
       start_point="499.23674,53.535843"
       end_point="499.23674,240.10432"
       center_point="499.23674,146.82008"
       id="path-effect7422"
       is_visible="true"
       lpeversion="1.2"
       lpesatellites=""
       mode="vertical"
       discard_orig_path="false"
       fuse_paths="false"
       oposite_fuse="false"
       split_items="false"
       split_open="false"
       link_styles="false" /><inkscape:path-effect
       effect="mirror_symmetry"
       start_point="735.41565,54.148409"
       end_point="735.41565,240.91645"
       center_point="735.41565,147.53243"
       id="path-effect7415"
       is_visible="true"
       lpeversion="1.2"
       lpesatellites=""
       mode="vertical"
       discard_orig_path="false"
       fuse_paths="false"
       oposite_fuse="false"
       split_items="false"
       split_open="false"
       link_styles="false" /><inkscape:path-effect
       effect="mirror_symmetry"
       start_point="499.23674,53.535843"
       end_point="499.23674,240.10432"
       center_point="499.23674,146.82008"
       id="path-effect7413"
       is_visible="true"
       lpeversion="1.2"
       lpesatellites=""
       mode="vertical"
       discard_orig_path="false"
       fuse_paths="false"
       oposite_fuse="false"
       split_items="false"
       split_open="false"
       link_styles="false" /><linearGradient
       inkscape:collect="always"
       id="linearGradient1197"><stop
         style="stop-color:#9f9f9f;stop-opacity:1;"
         offset="0"
         id="stop1193" /><stop
         style="stop-color:#5c5c5c;stop-opacity:1;"
         offset="0.53745341"
         id="stop6238" /><stop
         style="stop-color:#383838;stop-opacity:1;"
         offset="1"
         id="stop1195" /></linearGradient><linearGradient
       inkscape:collect="always"
       id="linearGradient1128"><stop
         style="stop-color:#4b4b4b;stop-opacity:1;"
         offset="0"
         id="stop1124" /><stop
         style="stop-color:#000000;stop-opacity:1;"
         offset="1"
         id="stop1126" /></linearGradient><inkscape:path-effect
       effect="mirror_symmetry"
       start_point="263.33932,500.02459"
       end_point="273.69081,752.39758"
       center_point="273.69081,500.02459"
       id="path-effect1062"
       is_visible="true"
       lpeversion="1.2"
       lpesatellites=""
       mode="vertical"
       discard_orig_path="false"
       fuse_paths="false"
       oposite_fuse="false"
       split_items="false"
       split_open="false"
       link_styles="false" /><linearGradient
       inkscape:collect="always"
       id="linearGradient1046"><stop
         style="stop-color:#ffffff;stop-opacity:1;"
         offset="0"
         id="stop1042" /><stop
         style="stop-color:#4c4c4c;stop-opacity:1;"
         offset="0.65183949"
         id="stop1056" /><stop
         style="stop-color:#424242;stop-opacity:1;"
         offset="0.7575857"
         id="stop1054" /><stop
         style="stop-color:#727272;stop-opacity:1;"
         offset="1"
         id="stop1044" /></linearGradient><linearGradient
       inkscape:collect="always"
       xlink:href="#linearGradient1046"
       id="linearGradient1048"
       x1="263.33932"
       y1="368.52399"
       x2="263.33932"
       y2="749.60364"
       gradientUnits="userSpaceOnUse" /><linearGradient
       inkscape:collect="always"
       xlink:href="#linearGradient1128"
       id="linearGradient1130"
       x1="464.44193"
       y1="247.6516"
       x2="464.44193"
       y2="759.53656"
       gradientUnits="userSpaceOnUse" /><linearGradient
       inkscape:collect="always"
       xlink:href="#linearGradient1197"
       id="linearGradient1199"
       x1="390.52643"
       y1="55.201538"
       x2="390.52643"
       y2="195.81114"
       gradientUnits="userSpaceOnUse" /><linearGradient
       inkscape:collect="always"
       xlink:href="#linearGradient7437"
       id="linearGradient7428"
       gradientUnits="userSpaceOnUse"
       x1="390.52643"
       y1="55.201538"
       x2="390.52643"
       y2="242.31664" /><linearGradient
       inkscape:collect="always"
       xlink:href="#linearGradient9878"
       id="linearGradient9868"
       x1="266.45483"
       y1="73.789986"
       x2="263.33932"
       y2="752.02869"
       gradientUnits="userSpaceOnUse" /><linearGradient
       inkscape:collect="always"
       xlink:href="#linearGradient13553"
       id="linearGradient12577"
       gradientUnits="userSpaceOnUse"
       x1="263.33932"
       y1="271.63562"
       x2="263.33932"
       y2="752.02869"
       gradientTransform="matrix(-1,0,0,1,1001.6299,2.2796756e-5)" /><linearGradient
       inkscape:collect="always"
       xlink:href="#linearGradient15226"
       id="linearGradient15216"
       gradientUnits="userSpaceOnUse"
       gradientTransform="matrix(-1,0,0,1,1001.6299,2.2796756e-5)"
       x1="264.98959"
       y1="484.83032"
       x2="254.5937"
       y2="484.83032" /><linearGradient
       inkscape:collect="always"
       xlink:href="#linearGradient15708"
       id="linearGradient15712"
       gradientUnits="userSpaceOnUse"
       x1="266.45483"
       y1="73.789986"
       x2="266.45483"
       y2="928.88629" /><linearGradient
       inkscape:collect="always"
       xlink:href="#linearGradient17132"
       id="linearGradient17134"
       x1="251.09195"
       y1="754.05743"
       x2="251.09195"
       y2="840.50665"
       gradientUnits="userSpaceOnUse" /><inkscape:path-effect
       effect="fill_between_many"
       method="originald"
       linkedpaths="#path2636,0,1 | #path976,0,1"
       id="path-effect3944"
       join="true"
       close="true"
       autoreverse="true"
       is_visible="true"
       lpeversion="0"
       applied="false" /><inkscape:path-effect
       effect="fill_between_many"
       method="originald"
       linkedpaths="#path2636,0,1 | #path976,0,1"
       id="path-effect4005"
       join="true"
       close="true"
       autoreverse="true"
       is_visible="true"
       lpeversion="0"
       applied="false" /><inkscape:path-effect
       effect="fill_between_many"
       method="originald"
       linkedpaths="#path2636,0,1 | #path976,0,1"
       id="path-effect3944-3"
       join="true"
       close="true"
       autoreverse="true"
       is_visible="true"
       lpeversion="0"
       applied="false" /><inkscape:path-effect
       effect="fill_between_many"
       method="originald"
       linkedpaths="#path2636,0,1 | #path976,0,1"
       id="path-effect4005-6"
       join="true"
       close="true"
       autoreverse="true"
       is_visible="true"
       lpeversion="0"
       applied="false" /><rect
       id="T"
       width="2"
       height="2" /></defs><g
     inkscape:label="Ebene 1"
     inkscape:groupmode="layer"
     id="layer1"
     style="display:inline"><rect
       style="display:inline;fill:#000000;fill-opacity:1;stroke:none;stroke-width:11.7725;stroke-linecap:square;stroke-linejoin:bevel;stroke-dasharray:none;stroke-opacity:1;paint-order:stroke markers fill;stop-color:#000000"
       id="rect17118"
       width="494.97931"
       height="527.16034"
       x="252.51035"
       y="243.87894"
       inkscape:label="black-back" /><path
       id="rect17124"
       style="display:inline;fill:url(#linearGradient17134);fill-opacity:1;stroke-width:11.621;stroke-linecap:square;stroke-linejoin:bevel;paint-order:stroke markers fill;stop-color:#000000"
       d="m 245.81269,764.56431 c 0,0 0.38206,-5.00674 1.26193,-6.7579 0.87988,-1.75115 4.01733,-3.749 4.01733,-3.749 l 11.58427,86.0147 c 0,0 -5.51599,-3.53389 -6.85455,-4.42659 -1.33856,-0.8927 -1.347,-1.7064 -1.347,-1.7064 0,0 -4.00433,-14.89354 -6.33953,-33.59645 -2.33521,-18.7029 -2.32245,-35.77836 -2.32245,-35.77836 z"
       sodipodi:nodetypes="czcczczc"
       inkscape:label="power-button" /><path
       id="rect15692"
       style="display:inline;fill:url(#linearGradient15712);fill-opacity:1;stroke-width:37.5982;stroke-linecap:square;stroke-linejoin:bevel;paint-order:stroke markers fill;stop-color:#000000"
       d="m 263.18149,157.58436 c 12.34289,-58.211643 39.20228,-86.47064 39.20228,-86.47064 l -37.22088,168.99259 0.007,7.54528 -10.4246,25.72862 -0.0745,226.6198 h -7.11701 l 0.30248,-32.87345 1.78218,-193.69057 c 0,0 0.47606,-11.86117 1.25036,-24.32019 0.45104,-7.25762 1.00327,-14.7181 1.62155,-20.15509 1.32747,-11.67347 2.44241,-27.65464 4.61766,-41.32666 1.94184,-12.20496 4.43121,-22.39872 6.05348,-30.04969 z m 0,684.83128 c 12.34289,58.21164 39.20228,86.47064 39.20228,86.47064 l -37.22088,-168.99259 0.007,-7.54528 -10.4246,-25.72862 -0.0745,-226.6198 h -7.11701 l 0.30248,32.87345 1.78218,193.69057 c 0,0 0.47606,11.86117 1.25036,24.32019 0.45104,7.25762 1.00327,14.7181 1.62155,20.15509 1.32747,11.67347 2.44241,27.65464 4.61766,41.32666 1.94184,12.20496 4.43121,22.39872 6.05348,30.04969 z M 736.81851,157.58436 C 724.47562,99.372717 697.61623,71.11372 697.61623,71.11372 l 37.22088,168.99259 -0.007,7.54528 10.4246,25.72862 0.0745,226.6198 h 7.11701 l -0.30248,-32.87345 -1.78218,-193.69057 c 0,0 -0.47606,-11.86117 -1.25036,-24.32019 -0.45104,-7.25762 -1.00327,-14.7181 -1.62155,-20.15509 -1.32747,-11.67347 -2.44241,-27.65464 -4.61766,-41.32666 -1.94184,-12.20496 -4.43121,-22.39872 -6.05348,-30.04969 z m 0,684.83128 c -12.34289,58.21164 -39.20228,86.47064 -39.20228,86.47064 l 37.22088,-168.99259 -0.007,-7.54528 10.4246,-25.72862 0.0745,-226.6198 h 7.11701 l -0.30248,32.87345 -1.78218,193.69057 c 0,0 -0.47606,11.86117 -1.25036,24.32019 -0.45104,7.25762 -1.00327,14.7181 -1.62155,20.15509 -1.32747,11.67347 -2.44241,27.65464 -4.61766,41.32666 -1.94184,12.20496 -4.43121,22.39872 -6.05348,30.04969 z"
       sodipodi:nodetypes="sccccccccssss"
       inkscape:label="outer-wristband"
       inkscape:path-effect="#path-effect16751;#path-effect17110"
       inkscape:original-d="m 263.18149,157.58436 c 12.34289,-58.211643 39.20228,-86.47064 39.20228,-86.47064 l -37.22088,168.99259 0.007,7.54528 -10.4246,25.72862 -0.0745,226.6198 h -7.11701 l 0.30248,-32.87345 1.78218,-193.69057 c 0,0 0.47606,-11.86117 1.25036,-24.32019 0.45104,-7.25762 1.00327,-14.7181 1.62155,-20.15509 1.32747,-11.67347 2.44241,-27.65464 4.61766,-41.32666 1.94184,-12.20496 4.43121,-22.39872 6.05348,-30.04969 z"
       class="UnoptimicedTransforms" /><path
       id="path7418"
       style="display:inline;fill:url(#linearGradient7428);fill-opacity:1;stroke-width:205.962;stroke-linecap:square;stroke-linejoin:bevel;paint-order:stroke markers fill;stop-color:#000000"
       d="m 314.53367,59.327667 c 0,0 61.73592,-3.806194 92.4691,-4.694059 C 437.73595,53.745743 500,54.347982 500,54.347982 V 240.91645 l -235.41481,-0.81213 c 0,0 -0.32582,-42.88301 11.88402,-99.09696 12.20983,-56.213938 25.30927,-72.914664 25.30927,-72.914664 0,0 1.50107,-2.841638 5.66288,-5.701518 4.16181,-2.85988 7.09231,-3.063511 7.09231,-3.063511 z m 370.93266,0 c 0,0 -61.73592,-3.806194 -92.4691,-4.694059 C 562.26405,53.745743 500,54.347982 500,54.347982 V 240.91645 l 235.41481,-0.81213 c 0,0 0.32582,-42.88301 -11.88402,-99.09696 -12.20983,-56.213938 -25.30927,-72.914664 -25.30927,-72.914664 0,0 -1.50107,-2.841638 -5.66288,-5.701518 -4.16181,-2.85988 -7.09231,-3.063511 -7.09231,-3.063511 z"
       sodipodi:nodetypes="czccczczc"
       inkscape:label="bottom-inner-wristband"
       transform="matrix(1,0,0,-1,0,996.23986)"
       inkscape:path-effect="#path-effect9856"
       inkscape:original-d="m 314.53367,59.327667 c 0,0 61.73592,-3.806194 92.4691,-4.694059 C 437.73595,53.745743 500,54.347982 500,54.347982 V 240.91645 l -235.41481,-0.81213 c 0,0 -0.32582,-42.88301 11.88402,-99.09696 12.20983,-56.213938 25.30927,-72.914664 25.30927,-72.914664 0,0 1.50107,-2.841638 5.66288,-5.701518 4.16181,-2.85988 7.09231,-3.063511 7.09231,-3.063511 z"
       class="UnoptimicedTransforms" /><g
       id="g17601"
       inkscape:path-effect="#path-effect17603"
       class="UnoptimicedTransforms"
       inkscape:label="holes"><path
         id="path17469"
         style="display:inline;fill:#1c1c1c;fill-opacity:1;stroke-width:15.1595;stroke-linecap:square;stroke-linejoin:bevel;paint-order:stroke markers fill;stop-color:#000000"
         d="m 351.66381,884.40958 c -0.0332,0.17228 -0.0508,0.34524 -0.0527,0.51832 -3.5e-4,3.15452 5.09926,5.71184 11.39,5.71179 6.29054,-10e-5 11.38983,-2.55738 11.38948,-5.71179 -0.002,-0.16876 -0.0185,-0.33739 -0.0501,-0.5054 -0.54956,2.44592 -5.46172,4.31538 -11.33936,4.3155 -5.88765,-0.001 -10.80277,-1.87772 -11.33729,-4.32842 z m 296.67238,0 c 0.0332,0.17228 0.0508,0.34524 0.0527,0.51832 3.5e-4,3.15452 -5.09926,5.71184 -11.39,5.71179 -6.29054,-10e-5 -11.38983,-2.55738 -11.38948,-5.71179 0.002,-0.16876 0.0185,-0.33739 0.0501,-0.5054 0.54956,2.44592 5.46172,4.31538 11.33936,4.3155 5.88765,-0.001 10.80277,-1.87772 11.33729,-4.32842 z"
         inkscape:label="hole-bottom"
         inkscape:original-d="m 351.66381,884.40958 a 11.389834,5.711473 0 0 0 -0.0527,0.51832 11.389834,5.711473 0 0 0 11.39,5.71179 11.389834,5.711473 0 0 0 11.38948,-5.71179 11.389834,5.711473 0 0 0 -0.0501,-0.5054 11.389834,4.7606177 0 0 1 -11.33936,4.3155 11.389834,4.7606177 0 0 1 -11.33729,-4.32842 z" /><path
         id="ellipse17523"
         style="display:inline;fill:#060606;fill-opacity:1;stroke-width:13.8402;stroke-linecap:square;stroke-linejoin:bevel;paint-order:stroke markers fill;stop-color:#000000"
         d="m 374.39081,883.97717 c 0,2.62922 -5.0994,4.76062 -11.38983,4.76062 -6.29044,0 -11.38984,-2.1314 -11.38984,-4.76062 1e-5,-2.62921 5.09941,-4.76061 11.38984,-4.76061 6.29042,0 11.38982,2.1314 11.38983,4.76061 z m 251.21838,0 c 0,2.62922 5.0994,4.76062 11.38983,4.76062 6.29044,0 11.38984,-2.1314 11.38984,-4.76062 -10e-6,-2.62921 -5.09941,-4.76061 -11.38984,-4.76061 -6.29042,0 -11.38982,2.1314 -11.38983,4.76061 z"
         inkscape:label="hole-top"
         inkscape:original-d="m 374.39081,883.97717 a 11.389834,4.7606177 0 0 1 -11.38983,4.76062 11.389834,4.7606177 0 0 1 -11.38984,-4.76062 11.389834,4.7606177 0 0 1 11.38984,-4.76061 11.389834,4.7606177 0 0 1 11.38983,4.76061 z" /></g><g
       id="g17836"
       style="display:inline"
       inkscape:label="polar-button"><path
         id="path17661"
         style="display:inline;stroke-width:11.621;stroke-linecap:square;stroke-linejoin:bevel;paint-order:stroke markers fill;stop-color:#000000"
         d="m 499.99997,812.87441 a 48.855888,30.078278 0 0 0 -48.85593,30.07827 48.855888,30.078278 0 0 0 48.85593,30.07827 48.855888,30.078278 0 0 0 48.85593,-30.07827 48.855888,30.078278 0 0 0 -48.85593,-30.07827 z m 0,1.83658 a 46.311897,26.685558 0 0 1 46.3119,26.68571 46.311897,26.685558 0 0 1 -46.3119,26.68571 46.311897,26.685558 0 0 1 -46.3119,-26.68571 46.311897,26.685558 0 0 1 46.3119,-26.68571 z"
         inkscape:label="outer" /><path
         id="path17988"
         style="display:inline;fill:#2d2d2d;fill-opacity:1;stroke-width:19.0647;stroke-linecap:square;stroke-linejoin:bevel;paint-order:stroke markers fill;stop-color:#000000"
         d="m 522.70204,824.1001 c 0,3.71147 -15.20947,-0.0606 -22.70204,-0.0606 -8.60558,0 -20.19175,3.64814 -20.19175,-0.89033 0,-2.21955 3.59283,-8.43823 20.19172,-8.43823 16.59883,0 22.70207,6.37318 22.70207,9.38911 z"
         sodipodi:nodetypes="sssss" /><path
         id="path17858"
         style="display:inline;fill:#363636;fill-opacity:1;stroke:none;stroke-width:12.3599;stroke-linecap:square;stroke-linejoin:bevel;stroke-dasharray:none;stroke-opacity:1;paint-order:stroke markers fill;stop-color:#000000"
         d="m 462.20179,850.55641 c 4.19909,10.39783 19.82498,17.72986 37.79821,17.73581 17.97323,-0.006 33.59912,-7.33798 37.79821,-17.73581 -7.9818,6.95008 -22.12845,13.80831 -37.60374,13.81264 -15.47529,-0.004 -30.01088,-6.86256 -37.99268,-13.81264 z"
         sodipodi:nodetypes="ccccc" /><path
         id="path17855"
         style="fill:#232323;stroke-width:11.3448;stroke-linecap:square;stroke-linejoin:bevel;paint-order:stroke markers fill;stop-color:#000000"
         d="M 526.16572,849.77362 A 26.165718,14.59502 0 0 1 500,864.36864 26.165718,14.59502 0 0 1 473.83428,849.77362 26.165718,14.59502 0 0 1 500,835.1786 a 26.165718,14.59502 0 0 1 26.16572,14.59502 z" /><path
         id="path17985"
         style="display:inline;fill:#191919;fill-opacity:1;stroke:none;stroke-width:11.8976;stroke-linecap:square;stroke-linejoin:bevel;stroke-dasharray:none;stroke-opacity:1;paint-order:stroke markers fill;stop-color:#000000"
         d="M 464.97648,844.04651 C 468.86733,833.64868 483.34615,826.31665 500,826.3107 c 16.65385,0.006 31.13267,7.33798 35.02352,17.73581 -7.39587,-6.95008 -20.50405,-13.80831 -34.84333,-13.81264 -14.33927,0.004 -27.80784,6.86256 -35.20371,13.81264 z"
         sodipodi:nodetypes="ccccc" /></g><g
       id="rect1064"
       style="display:inline"
       inkscape:label="screen"><path
         id="path1068"
         style="color:#000000;display:inline;fill:#000000;stroke-linecap:square;stroke-linejoin:bevel;-inkscape-stroke:none;paint-order:stroke markers fill"
         d="m 284.20901,240.56464 c -7.50976,0 -13.73611,6.22842 -13.73611,13.73818 v 493.09342 c 0,7.50977 6.22635,13.7387 13.73611,13.7387 H 715.4199 c 7.50976,0 13.73611,-6.22893 13.73611,-13.7387 V 254.30282 c 0,-7.50976 -6.22635,-13.73818 -13.73611,-13.73818 z m 5.2e-4,5.81102 H 715.4199 c 4.39126,0 7.92613,3.53538 7.92613,7.92665 v 493.09445 c 0,4.39126 -3.53487,7.92664 -7.92613,7.92664 H 284.20953 c -4.39127,0 -7.92614,-3.53538 -7.92614,-7.92664 V 254.30231 c 0,-4.39127 3.53487,-7.92665 7.92614,-7.92665 z"
         inkscape:label="outline" /><path
         id="path1070"
         style="color:#000000;display:inline;fill:#101010;stroke-width:11.621;stroke-linecap:square;stroke-linejoin:bevel;-inkscape-stroke:none;paint-order:stroke markers fill;fill-opacity:1"
         d="M 655.13683,246.37566 C 647.91464,255.01261 503.58762,427.74452 444.05617,511.03909 383.62378,595.59421 293.46037,752.1853 291.65462,755.3234 H 715.4199 c 4.39126,0 7.92613,-3.53538 7.92613,-7.92664 V 254.30231 c 0,-4.39127 -3.53487,-7.92665 -7.92613,-7.92665 z"
         sodipodi:nodetypes="cscssssc"
         inkscape:label="right-black" /><path
         id="path1086"
         style="color:#000000;display:inline;fill:url(#linearGradient1130);fill-opacity:1;stroke-width:11.621;stroke-linecap:square;stroke-linejoin:bevel;-inkscape-stroke:none;paint-order:stroke markers fill"
         d="m 284.20953,246.37566 c -4.39127,0 -7.92614,3.53538 -7.92614,7.92665 v 493.09445 c 0,4.39126 3.53487,7.92664 7.92614,7.92664 h 44.36318 c 1.80575,-3.13811 91.9691,-159.72911 152.40155,-244.28431 59.53151,-83.29465 203.85847,-256.02647 211.08066,-264.66343 z"
         inkscape:label="left-gradient" /><rect
         style="display:inline;fill:#000000;stroke-width:0.994656;stroke-linecap:square;stroke-linejoin:bevel;stop-color:#000000;fill-opacity:0.30245435"
         id="rect422"
         width="410.61292"
         height="410.61292"
         x="294.90176"
         y="324.20963"
         ry="15.516844" /><rect
         style="fill:#101010;fill-opacity:0;stroke-width:1.04424;stroke-linecap:square;stroke-linejoin:bevel;stop-color:#000000"
         id="rect1366"
         width="1000"
         height="1000"
         x="0"
         y="0"
         ry="15.516844" /></g><path
       id="path12571"
       style="display:inline;fill:url(#linearGradient12577);fill-opacity:1;stroke-width:15.8616;stroke-linecap:square;stroke-linejoin:bevel;paint-order:stroke markers fill;stop-color:#000000"
       d="m 745.25471,273.38021 c 0,0 1.54452,-6.89086 -0.19286,-11.43168 -1.73744,-4.54082 -10.23141,-14.29694 -10.23141,-14.29694 l 0.39688,506.27167 c 0,0 1.3188,0.541 6.34795,-6.93727 5.02916,-7.47826 3.72743,-14.00795 3.72743,-14.00795 z"
       inkscape:label="outer-bezel-right-verticalgradient"
       sodipodi:nodetypes="czcczcc" /><path
       id="path15212"
       style="display:inline;fill:url(#linearGradient15216);fill-opacity:1;stroke-width:15.8616;stroke-linecap:square;stroke-linejoin:bevel;paint-order:stroke markers fill;stop-color:#000000"
       d="m 746.88503,273.38023 c 0,0 -0.0858,-6.89088 -1.82318,-11.4317 -1.73744,-4.54082 -10.23141,-14.29694 -10.23141,-14.29694 l 0.39688,506.27167 c 0,0 1.3188,0.541 6.34795,-6.93727 5.02916,-7.47826 5.46092,-13.87737 5.46092,-13.87737 z"
       inkscape:label="outer-bezel-right-hotizontalgradient"
       sodipodi:nodetypes="czcczcc" /><path
       id="rect9858"
       style="display:inline;fill:url(#linearGradient9868);fill-opacity:1;stroke-width:15.8616;stroke-linecap:square;stroke-linejoin:bevel;paint-order:stroke markers fill;stop-color:#000000"
       d="m 254.74496,273.38021 c 0,0 0.54582,-9.28251 2.2832,-13.82333 1.73744,-4.54082 8.1414,-11.90529 8.1414,-11.90529 l -0.39309,506.27165 c 0,0 -0.8522,-0.80608 -4.77762,-6.91542 -3.92543,-6.10934 -5.40505,-13.89922 -5.40505,-13.89922 z"
       inkscape:label="outer-bezel-left"
       sodipodi:nodetypes="czcczcc" /><path
       id="rect366"
       style="display:inline;fill:url(#linearGradient1048);fill-opacity:1;stroke-width:2.47256;stroke-linecap:square;stroke-linejoin:bevel;stop-color:#000000"
       d="m 265.16956,247.65159 h 8.2095 c 0,0 -2.7148,169.58627 -2.7148,253.91187 0,84.32559 1.86956,252.21825 1.86956,252.21825 l -7.75736,0.14151 c 0,0 -1.43714,-168.10587 -1.43714,-252.43146 0,-84.3256 1.83024,-253.84017 1.83024,-253.84017 z m 469.66088,0 h -8.2095 c 0,0 2.7148,169.58627 2.7148,253.91187 0,84.32559 -1.86956,252.21825 -1.86956,252.21825 l 7.75736,0.14151 c 0,0 1.43714,-168.10587 1.43714,-252.43146 0,-84.3256 -1.83024,-253.84017 -1.83024,-253.84017 z"
       sodipodi:nodetypes="cczcczc"
       inkscape:path-effect="#path-effect1062"
       inkscape:original-d="m 265.16956,247.65159 h 8.2095 c 0,0 -2.7148,169.58627 -2.7148,253.91187 0,84.32559 1.86956,252.21825 1.86956,252.21825 l -7.75736,0.14151 c 0,0 -1.43714,-168.10587 -1.43714,-252.43146 0,-84.3256 1.83024,-253.84017 1.83024,-253.84017 z"
       class="UnoptimicedTransforms"
       inkscape:label="inner-bezel" /><path
       id="rect1188"
       style="display:inline;fill:url(#linearGradient1199);fill-opacity:1;stroke-width:205.962;stroke-linecap:square;stroke-linejoin:bevel;paint-order:stroke markers fill;stop-color:#000000"
       d="m 314.53367,59.327667 c 0,0 61.73592,-3.806194 92.4691,-4.694059 C 437.73595,53.745743 500,54.347982 500,54.347982 V 240.91645 l -235.41481,-0.81213 c 0,0 -0.32582,-42.88301 11.88402,-99.09696 12.20983,-56.213938 25.30927,-72.914664 25.30927,-72.914664 0,0 1.50107,-2.841638 5.66288,-5.701518 4.16181,-2.85988 7.09231,-3.063511 7.09231,-3.063511 z m 370.93266,0 c 0,0 -61.73592,-3.806194 -92.4691,-4.694059 C 562.26405,53.745743 500,54.347982 500,54.347982 V 240.91645 l 235.41481,-0.81213 c 0,0 0.32582,-42.88301 -11.88402,-99.09696 -12.20983,-56.213938 -25.30927,-72.914664 -25.30927,-72.914664 0,0 -1.50107,-2.841638 -5.66288,-5.701518 -4.16181,-2.85988 -7.09231,-3.063511 -7.09231,-3.063511 z"
       sodipodi:nodetypes="czccczczc"
       inkscape:path-effect="#path-effect7413"
       inkscape:original-d="m 314.53367,59.327667 c 0,0 61.73592,-3.806194 92.4691,-4.694059 C 437.73595,53.745743 500,54.347982 500,54.347982 V 240.91645 l -235.41481,-0.81213 c 0,0 -0.32582,-42.88301 11.88402,-99.09696 12.20983,-56.213938 25.30927,-72.914664 25.30927,-72.914664 0,0 1.50107,-2.841638 5.66288,-5.701518 4.16181,-2.85988 7.09231,-3.063511 7.09231,-3.063511 z"
       inkscape:label="top-inner-wristband"
       class="UnoptimicedTransforms" /><path
       id="rect17112"
       style="display:inline;fill:#000000;stroke-width:17.5206;stroke-linecap:square;stroke-linejoin:bevel;paint-order:stroke markers fill;stop-color:#000000"
       inkscape:label="black-outline"
       d="M 265.16287,240.10631 H 500 v 6.26935 h -215.79047 -7.23172 l -3.7144,8.66261 0.11565,-7.38668 h -8.20917 l -1.92591,390.92175 v 0 l -1.64964,-131.78171 1.9288,-251.60129 c 0,-3.51429 0.54556,-6.22833 0.54556,-6.22833 -1.49303,1.73866 -4.81732,6.11178 -5.99453,8.41934 -1.5995,3.13535 -2.50828,7.80636 -2.50828,7.80636 l -0.86859,467.79033 -0.23149,-13.28228 -0.44452,-454.50861 c 0,0 0.71859,-3.08374 2.12137,-7.10766 1.60432,-4.60207 3.9744,-10.34465 4.9651,-12.57481 1.85693,-4.18014 4.05514,-5.39838 4.05514,-5.39838 z m 469.67426,0 H 500 v 6.26935 h 215.79047 7.23172 l 3.7144,8.66261 -0.11565,-7.38668 h 8.20917 l 1.92591,390.92175 v 0 l 1.64964,-131.78171 -1.9288,-251.60129 c 0,-3.51429 -0.54556,-6.22833 -0.54556,-6.22833 1.49303,1.73866 4.81732,6.11178 5.99453,8.41934 1.5995,3.13535 2.50828,7.80636 2.50828,7.80636 l 0.86859,467.79033 0.23149,-13.28228 0.44452,-454.50861 c 0,0 -0.71859,-3.08374 -2.12137,-7.10766 -1.60432,-4.60207 -3.9744,-10.34465 -4.9651,-12.57481 -1.85693,-4.18014 -4.05514,-5.39838 -4.05514,-5.39838 z"
       sodipodi:nodetypes="cccccccccccccsccccsscc"
       inkscape:path-effect="#path-effect17116"
       inkscape:original-d="M 265.16287,240.10631 H 500 v 6.26935 h -215.79047 -7.23172 l -3.7144,8.66261 0.11565,-7.38668 h -8.20917 l -1.92591,390.92175 v 0 l -1.64964,-131.78171 1.9288,-251.60129 c 0,-3.51429 0.54556,-6.22833 0.54556,-6.22833 -1.49303,1.73866 -4.81732,6.11178 -5.99453,8.41934 -1.5995,3.13535 -2.50828,7.80636 -2.50828,7.80636 l -0.86859,467.79033 -0.23149,-13.28228 -0.44452,-454.50861 c 0,0 0.71859,-3.08374 2.12137,-7.10766 1.60432,-4.60207 3.9744,-10.34465 4.9651,-12.57481 1.85693,-4.18014 4.05514,-5.39838 4.05514,-5.39838 z"
       class="UnoptimicedTransforms" /><path
       id="path18045"
       style="display:inline;fill:#000000;fill-opacity:1;stroke:none;stroke-width:14.9999;stroke-linecap:square;stroke-linejoin:bevel;stroke-dasharray:none;stroke-opacity:1;paint-order:stroke markers fill;stop-color:#000000"
       d="m 499.99997,812.87441 a 42.215195,27.603994 0 0 0 -42.21499,27.604 42.215195,27.603994 0 0 0 42.21499,27.604 39.406471,26.685699 0 0 1 -39.40638,-26.68571 39.406471,26.685699 0 0 1 39.40638,-26.68571 39.406471,26.685699 0 0 1 39.40638,26.68571 39.406471,26.685699 0 0 1 -39.40638,26.68571 42.215195,27.603994 0 0 0 42.215,-27.604 42.215195,27.603994 0 0 0 -42.215,-27.604 z"
       inkscape:export-filename="../../../Git/asteroidos.org/assets/public/img/pike.png"
       inkscape:export-xdpi="8.5816317"
       inkscape:export-ydpi="8.5816317" /></g></svg>
