<?xml version="1.0" encoding="UTF-8" standalone="no"?>
<!-- Created with Inkscape (http://www.inkscape.org/) -->

<svg
   width="1000mm"
   height="1000mm"
   viewBox="0 0 1000 1000"
   version="1.1"
   id="svg5"
   xml:space="preserve"
   inkscape:version="1.2.2 (b0a8486541, 2022-12-01)"
   sodipodi:docname="pike-gradient.svg"
   inkscape:export-filename="../../../../Dokumente/AsteroidOS/asteroid-media/watches/transparent-photo/pike.png"
   inkscape:export-xdpi="15.24"
   inkscape:export-ydpi="15.24"
   xmlns:inkscape="http://www.inkscape.org/namespaces/inkscape"
   xmlns:sodipodi="http://sodipodi.sourceforge.net/DTD/sodipodi-0.dtd"
   xmlns:xlink="http://www.w3.org/1999/xlink"
   xmlns="http://www.w3.org/2000/svg"
   xmlns:svg="http://www.w3.org/2000/svg"><sodipodi:namedview
     id="namedview7"
     pagecolor="#ffffff"
     bordercolor="#000000"
     borderopacity="0.25"
     inkscape:showpageshadow="2"
     inkscape:pageopacity="0.0"
     inkscape:pagecheckerboard="0"
     inkscape:deskcolor="#d1d1d1"
     inkscape:document-units="mm"
     showgrid="false"
     showguides="true"
     inkscape:zoom="0.15776024"
     inkscape:cx="1014.1973"
     inkscape:cy="2196.3709"
     inkscape:window-width="1920"
     inkscape:window-height="1023"
     inkscape:window-x="0"
     inkscape:window-y="33"
     inkscape:window-maximized="1"
     inkscape:current-layer="layer1"><sodipodi:guide
       position="218.44133,525.22079"
       orientation="1,0"
       id="guide989"
       inkscape:locked="false" /><sodipodi:guide
       position="780.47375,510.53797"
       orientation="1,0"
       id="guide991"
       inkscape:locked="false" /><sodipodi:guide
       position="499.75698,999.99999"
       orientation="0,-1"
       id="guide1114"
       inkscape:locked="false" /></sodipodi:namedview><defs
     id="defs2"><inkscape:path-effect
       effect="mirror_symmetry"
       start_point="374.39081,879.21656"
       end_point="374.39081,890.63969"
       center_point="374.39081,884.92813"
       id="path-effect17603"
       is_visible="true"
       lpeversion="1.2"
       lpesatellites=""
       mode="vertical"
       discard_orig_path="false"
       fuse_paths="false"
       oposite_fuse="false"
       split_items="false"
       split_open="false"
       link_styles="false" /><linearGradient
       inkscape:collect="always"
       id="linearGradient17132"><stop
         style="stop-color:#4e4e4e;stop-opacity:1;"
         offset="0"
         id="stop17128" /><stop
         style="stop-color:#3b3b3b;stop-opacity:1;"
         offset="0.2770102"
         id="stop17136" /><stop
         style="stop-color:#2f2f2f;stop-opacity:1;"
         offset="0.6411342"
         id="stop17276" /><stop
         style="stop-color:#4a4a4a;stop-opacity:1;"
         offset="1"
         id="stop17130" /></linearGradient><inkscape:path-effect
       effect="mirror_symmetry"
       start_point="500,240.1063"
       end_point="500,732.97804"
       center_point="500,486.54217"
       id="path-effect17116"
       is_visible="true"
       lpeversion="1.2"
       lpesatellites=""
       mode="free"
       discard_orig_path="false"
       fuse_paths="false"
       oposite_fuse="false"
       split_items="false"
       split_open="false"
       link_styles="false" /><inkscape:path-effect
       effect="mirror_symmetry"
       start_point="302.38377,71.11372"
       end_point="302.38377,928.88628"
       center_point="302.38377,500"
       id="path-effect17110"
       is_visible="true"
       lpeversion="1.2"
       lpesatellites=""
       mode="vertical"
       discard_orig_path="false"
       fuse_paths="false"
       oposite_fuse="false"
       split_items="false"
       split_open="false"
       link_styles="false" /><inkscape:path-effect
       effect="mirror_symmetry"
       start_point="298.3094,73.789986"
       end_point="298.3094,500.00001"
       center_point="298.3094,286.895"
       id="path-effect16751"
       is_visible="true"
       lpeversion="1.2"
       lpesatellites=""
       mode="horizontal"
       discard_orig_path="false"
       fuse_paths="false"
       oposite_fuse="false"
       split_items="false"
       split_open="false"
       link_styles="false" /><linearGradient
       inkscape:collect="always"
       id="linearGradient15708"><stop
         style="stop-color:#8a8a8a;stop-opacity:1;"
         offset="0"
         id="stop15704" /><stop
         style="stop-color:#414141;stop-opacity:1;"
         offset="0.19807872"
         id="stop16059" /><stop
         style="stop-color:#4e4e4e;stop-opacity:1;"
         offset="0.49647629"
         id="stop15706" /><stop
         style="stop-color:#363636;stop-opacity:1;"
         offset="0.79796755"
         id="stop16753" /><stop
         style="stop-color:#4b4b4b;stop-opacity:1;"
         offset="0.99473971"
         id="stop16755" /></linearGradient><linearGradient
       inkscape:collect="always"
       id="linearGradient15226"><stop
         style="stop-color:#7f7f7f;stop-opacity:1;"
         offset="0.0020065"
         id="stop15218" /><stop
         style="stop-color:#b9b9b9;stop-opacity:0;"
         offset="1"
         id="stop15224" /></linearGradient><linearGradient
       inkscape:collect="always"
       id="linearGradient13553"><stop
         style="stop-color:#dbdbdb;stop-opacity:1;"
         offset="0"
         id="stop13545" /><stop
         style="stop-color:#b7b7b7;stop-opacity:1;"
         offset="0.2908707"
         id="stop13547" /><stop
         style="stop-color:#ababab;stop-opacity:1;"
         offset="0.47797444"
         id="stop13549" /><stop
         style="stop-color:#b9b9b9;stop-opacity:1;"
         offset="1"
         id="stop13551" /></linearGradient><linearGradient
       inkscape:collect="always"
       id="linearGradient9878"><stop
         style="stop-color:#7a7a7a;stop-opacity:1;"
         offset="0"
         id="stop9870" /><stop
         style="stop-color:#535353;stop-opacity:1;"
         offset="0.2908707"
         id="stop9872" /><stop
         style="stop-color:#555555;stop-opacity:1;"
         offset="0.47797444"
         id="stop9874" /><stop
         style="stop-color:#c1c1c1;stop-opacity:1;"
         offset="1"
         id="stop9876" /></linearGradient><inkscape:path-effect
       effect="mirror_symmetry"
       start_point="500,54.148409"
       end_point="500,240.91645"
       center_point="500,147.53243"
       id="path-effect9856"
       is_visible="true"
       lpeversion="1.2"
       lpesatellites=""
       mode="free"
       discard_orig_path="false"
       fuse_paths="false"
       oposite_fuse="false"
       split_items="false"
       split_open="false"
       link_styles="false" /><linearGradient
       inkscape:collect="always"
       id="linearGradient7437"><stop
         style="stop-color:#5f5f5f;stop-opacity:1;"
         offset="0"
         id="stop7431" /><stop
         style="stop-color:#3a3a3a;stop-opacity:1;"
         offset="0.22097644"
         id="stop17991" /><stop
         style="stop-color:#2b2b2b;stop-opacity:1;"
         offset="0.42915049"
         id="stop8681" /><stop
         style="stop-color:#161616;stop-opacity:1;"
         offset="0.68921977"
         id="stop7433" /><stop
         style="stop-color:#1f1f1f;stop-opacity:1;"
         offset="1"
         id="stop7435" /></linearGradient><inkscape:path-effect
       effect="mirror_symmetry"
       start_point="735.41565,54.148409"
       end_point="735.41565,240.91645"
       center_point="735.41565,147.53243"
       id="path-effect7426"
       is_visible="true"
       lpeversion="1.2"
       lpesatellites=""
       mode="vertical"
       discard_orig_path="false"
       fuse_paths="false"
       oposite_fuse="false"
       split_items="false"
       split_open="false"
       link_styles="false" /><inkscape:path-effect
       effect="mirror_symmetry"
       start_point="499.23674,53.535843"
       end_point="499.23674,240.10432"
       center_point="499.23674,146.82008"
       id="path-effect7422"
       is_visible="true"
       lpeversion="1.2"
       lpesatellites=""
       mode="vertical"
       discard_orig_path="false"
       fuse_paths="false"
       oposite_fuse="false"
       split_items="false"
       split_open="false"
       link_styles="false" /><inkscape:path-effect
       effect="mirror_symmetry"
       start_point="735.41565,54.148409"
       end_point="735.41565,240.91645"
       center_point="735.41565,147.53243"
       id="path-effect7415"
       is_visible="true"
       lpeversion="1.2"
       lpesatellites=""
       mode="vertical"
       discard_orig_path="false"
       fuse_paths="false"
       oposite_fuse="false"
       split_items="false"
       split_open="false"
       link_styles="false" /><inkscape:path-effect
       effect="mirror_symmetry"
       start_point="499.23674,53.535843"
       end_point="499.23674,240.10432"
       center_point="499.23674,146.82008"
       id="path-effect7413"
       is_visible="true"
       lpeversion="1.2"
       lpesatellites=""
       mode="vertical"
       discard_orig_path="false"
       fuse_paths="false"
       oposite_fuse="false"
       split_items="false"
       split_open="false"
       link_styles="false" /><linearGradient
       inkscape:collect="always"
       id="linearGradient1197"><stop
         style="stop-color:#9f9f9f;stop-opacity:1;"
         offset="0"
         id="stop1193" /><stop
         style="stop-color:#5c5c5c;stop-opacity:1;"
         offset="0.53745341"
         id="stop6238" /><stop
         style="stop-color:#383838;stop-opacity:1;"
         offset="1"
         id="stop1195" /></linearGradient><linearGradient
       inkscape:collect="always"
       id="linearGradient1128"><stop
         style="stop-color:#4b4b4b;stop-opacity:1;"
         offset="0"
         id="stop1124" /><stop
         style="stop-color:#000000;stop-opacity:1;"
         offset="1"
         id="stop1126" /></linearGradient><inkscape:path-effect
       effect="mirror_symmetry"
       start_point="263.33932,500.02459"
       end_point="273.69081,752.39758"
       center_point="273.69081,500.02459"
       id="path-effect1062"
       is_visible="true"
       lpeversion="1.2"
       lpesatellites=""
       mode="vertical"
       discard_orig_path="false"
       fuse_paths="false"
       oposite_fuse="false"
       split_items="false"
       split_open="false"
       link_styles="false" /><linearGradient
       inkscape:collect="always"
       id="linearGradient1046"><stop
         style="stop-color:#ffffff;stop-opacity:1;"
         offset="0"
         id="stop1042" /><stop
         style="stop-color:#4c4c4c;stop-opacity:1;"
         offset="0.65183949"
         id="stop1056" /><stop
         style="stop-color:#424242;stop-opacity:1;"
         offset="0.7575857"
         id="stop1054" /><stop
         style="stop-color:#727272;stop-opacity:1;"
         offset="1"
         id="stop1044" /></linearGradient><linearGradient
       inkscape:collect="always"
       xlink:href="#linearGradient1046"
       id="linearGradient1048"
       x1="263.33932"
       y1="368.52399"
       x2="263.33932"
       y2="749.60364"
       gradientUnits="userSpaceOnUse"
       gradientTransform="matrix(1.11197,0,0,1.11197,-55.887538,-53.657833)" /><linearGradient
       inkscape:collect="always"
       xlink:href="#linearGradient1128"
       id="linearGradient1130"
       x1="464.44193"
       y1="247.6516"
       x2="464.44193"
       y2="759.53656"
       gradientUnits="userSpaceOnUse" /><linearGradient
       inkscape:collect="always"
       xlink:href="#linearGradient1197"
       id="linearGradient1199"
       x1="390.52643"
       y1="55.201538"
       x2="390.52643"
       y2="195.81114"
       gradientUnits="userSpaceOnUse"
       gradientTransform="matrix(1.11197,0,0,1.11197,-55.887538,-53.657833)" /><linearGradient
       inkscape:collect="always"
       xlink:href="#linearGradient7437"
       id="linearGradient7428"
       gradientUnits="userSpaceOnUse"
       x1="390.52643"
       y1="55.201538"
       x2="390.52643"
       y2="242.31664"
       gradientTransform="matrix(1.11197,0,0,-1.11197,-55.887538,1054.1312)" /><linearGradient
       inkscape:collect="always"
       xlink:href="#linearGradient9878"
       id="linearGradient9868"
       x1="266.45483"
       y1="73.789986"
       x2="263.33932"
       y2="752.02869"
       gradientUnits="userSpaceOnUse"
       gradientTransform="matrix(1.11197,0,0,1.11197,-55.887538,-53.657833)" /><linearGradient
       inkscape:collect="always"
       xlink:href="#linearGradient13553"
       id="linearGradient12577"
       gradientUnits="userSpaceOnUse"
       x1="263.33932"
       y1="271.63562"
       x2="263.33932"
       y2="752.02869"
       gradientTransform="matrix(-1.11197,0,0,1.11197,1057.8949,-53.657808)" /><linearGradient
       inkscape:collect="always"
       xlink:href="#linearGradient15226"
       id="linearGradient15216"
       gradientUnits="userSpaceOnUse"
       gradientTransform="matrix(-1.11197,0,0,1.11197,1057.8949,-53.657808)"
       x1="264.98959"
       y1="484.83032"
       x2="254.5937"
       y2="484.83032" /><linearGradient
       inkscape:collect="always"
       xlink:href="#linearGradient15708"
       id="linearGradient15712"
       gradientUnits="userSpaceOnUse"
       x1="266.45483"
       y1="73.789986"
       x2="266.45483"
       y2="928.88629"
       gradientTransform="matrix(1.11197,0,0,1.11197,-55.887538,-53.657833)" /><linearGradient
       inkscape:collect="always"
       xlink:href="#linearGradient17132"
       id="linearGradient17134"
       x1="251.09195"
       y1="754.05743"
       x2="251.09195"
       y2="840.50665"
       gradientUnits="userSpaceOnUse"
       gradientTransform="matrix(1.11197,0,0,1.11197,-55.887538,-53.657833)" /><inkscape:path-effect
       effect="fill_between_many"
       method="originald"
       linkedpaths="#path2636,0,1 | #path976,0,1"
       id="path-effect3944"
       join="true"
       close="true"
       autoreverse="true"
       is_visible="true"
       lpeversion="0"
       applied="false" /><inkscape:path-effect
       effect="fill_between_many"
       method="originald"
       linkedpaths="#path2636,0,1 | #path976,0,1"
       id="path-effect4005"
       join="true"
       close="true"
       autoreverse="true"
       is_visible="true"
       lpeversion="0"
       applied="false" /><inkscape:path-effect
       effect="fill_between_many"
       method="originald"
       linkedpaths="#path2636,0,1 | #path976,0,1"
       id="path-effect3944-3"
       join="true"
       close="true"
       autoreverse="true"
       is_visible="true"
       lpeversion="0"
       applied="false" /><inkscape:path-effect
       effect="fill_between_many"
       method="originald"
       linkedpaths="#path2636,0,1 | #path976,0,1"
       id="path-effect4005-6"
       join="true"
       close="true"
       autoreverse="true"
       is_visible="true"
       lpeversion="0"
       applied="false" /><rect
       id="T"
       width="2"
       height="2" /></defs><g
     inkscape:label="Ebene 1"
     inkscape:groupmode="layer"
     id="layer1"
     style="display:inline"><path
       id="rect17118"
       style="display:inline;stroke-width:13.0907;stroke-linecap:square;stroke-linejoin:bevel;paint-order:stroke markers fill;stop-color:#000000"
       inkscape:label="black-back"
       d="m 224.8964,217.52825 h 550.40215 v 586.1865 H 224.8964 Z" /><path
       id="rect17124"
       style="display:inline;fill:url(#linearGradient17134);fill-opacity:1;stroke-width:12.9222;stroke-linecap:square;stroke-linejoin:bevel;paint-order:stroke markers fill;stop-color:#000000"
       d="m 217.44881,796.51477 c 0,0 0.42483,-5.56734 1.40322,-7.51458 0.9784,-1.94722 4.46715,-4.16877 4.46715,-4.16877 l 12.88137,95.64576 c 0,0 -6.13362,-3.92958 -7.62206,-4.92223 -1.48844,-0.99266 -1.49782,-1.89747 -1.49782,-1.89747 0,0 -4.4527,-16.56117 -7.04937,-37.35824 -2.59668,-20.79707 -2.58249,-39.78447 -2.58249,-39.78447 z"
       sodipodi:nodetypes="czcczczc"
       inkscape:label="power-button" /><path
       id="rect15692"
       style="display:inline;fill:url(#linearGradient15712);fill-opacity:1;stroke-width:41.8081;stroke-linecap:square;stroke-linejoin:bevel;paint-order:stroke markers fill;stop-color:#000000"
       d="M 236.76239,121.57126 C 250.48731,56.84165 280.35415,14.251082 280.35415,14.251082 l -41.3885,199.082118 0.008,8.39012 -11.59184,28.60946 -0.0828,251.99442 h -7.9139 l 0.33634,-36.55429 1.98173,-215.37811 c 0,0 0.52937,-13.18926 1.39037,-27.04332 0.50154,-8.07025 1.1156,-16.36608 1.80311,-22.41185 1.47611,-12.98055 2.71589,-30.75114 5.1347,-45.95401 2.15927,-13.57155 4.92737,-24.90671 6.73129,-33.41436 z m 0,761.51186 c 13.72492,64.7296 43.59176,102.6658 43.59176,102.6658 l -41.3885,-194.42774 0.008,-8.39012 -11.59184,-28.60945 -0.0828,-251.99443 h -7.9139 l 0.33634,36.55429 1.98173,215.37811 c 0,0 0.52937,13.18926 1.39037,27.04332 0.50154,8.07026 1.1156,16.36609 1.80311,22.41186 1.47611,12.98055 2.71589,30.75113 5.1347,45.954 2.15927,13.57155 4.92737,24.90671 6.73129,33.41436 z M 763.43256,121.57126 C 749.70764,56.84165 719.8408,14.251082 719.8408,14.251082 l 41.3885,199.082118 -0.008,8.39012 11.59184,28.60946 0.0828,251.99442 h 7.9139 L 780.4735,465.77291 778.49177,250.3948 c 0,0 -0.52937,-13.18926 -1.39037,-27.04332 -0.50154,-8.07025 -1.1156,-16.36608 -1.80311,-22.41185 -1.47611,-12.98055 -2.71589,-30.75114 -5.1347,-45.95401 -2.15927,-13.57155 -4.92737,-24.90671 -6.73129,-33.41436 z m 0,761.51186 c -13.72492,64.7296 -43.59176,102.6658 -43.59176,102.6658 l 41.3885,-194.42774 -0.008,-8.39012 11.59184,-28.60945 0.0828,-251.99443 h 7.9139 l -0.33634,36.55429 -1.98173,215.37811 c 0,0 -0.52937,13.18926 -1.39037,27.04332 -0.50154,8.07026 -1.1156,16.36609 -1.80311,22.41186 -1.47611,12.98055 -2.71589,30.75113 -5.1347,45.954 -2.15927,13.57155 -4.92737,24.90671 -6.73129,33.41436 z"
       sodipodi:nodetypes="sccccccccssssscccccccccssscccccccccccssscccccccccccssscc"
       inkscape:label="outer-wristband" /><path
       id="path7418"
       style="display:inline;fill:url(#linearGradient7428);fill-opacity:1;stroke-width:229.024;stroke-linecap:square;stroke-linejoin:bevel;paint-order:stroke markers fill;stop-color:#000000"
       d="m 293.86448,994.46274 c 0,0 68.64848,4.90206 102.82286,5.21966 C 430.86172,1000 500.09746,1000 500.09746,1000 l 2e-5,-213.76083 -261.77422,0.90306 c 0,0 -0.3623,47.68463 13.21468,110.19285 13.57696,62.50822 28.14315,87.38121 28.14315,87.38121 0,0 1.66914,3.15982 6.29695,6.33992 4.62781,3.1801 7.88644,3.40653 7.88644,3.40653 z m 412.46599,0 c 0,0 -68.6358,4.89204 -102.82286,5.21966 C 570.36634,1000 500.09746,1000 500.09746,1000 l 2e-5,-213.76083 261.77421,0.90306 c 0,0 0.3623,47.68463 -13.21468,110.19285 -13.57696,62.50822 -28.14315,87.38121 -28.14315,87.38121 0,0 -1.66914,3.15982 -6.29695,6.33992 -4.62781,3.1801 -7.88644,3.40653 -7.88644,3.40653 z"
       sodipodi:nodetypes="czccczczccscccscsc"
       inkscape:label="bottom-inner-wristband" /><g
       id="g17601"
       inkscape:label="holes"
       transform="matrix(1.11197,0,0,1.11197,-55.887538,-53.657833)"><path
         id="path17469"
         style="display:inline;fill:#1c1c1c;fill-opacity:1;stroke-width:15.1595;stroke-linecap:square;stroke-linejoin:bevel;paint-order:stroke markers fill;stop-color:#000000"
         d="m 351.66381,884.40958 c -0.0332,0.17228 -0.0508,0.34524 -0.0527,0.51832 -3.5e-4,3.15452 5.09926,5.71184 11.39,5.71179 6.29054,-10e-5 11.38983,-2.55738 11.38948,-5.71179 -0.002,-0.16876 -0.0185,-0.33739 -0.0501,-0.5054 -0.54956,2.44592 -5.46172,4.31538 -11.33936,4.3155 -5.88765,-0.001 -10.80277,-1.87772 -11.33729,-4.32842 z m 296.67238,0 c 0.0332,0.17228 0.0508,0.34524 0.0527,0.51832 3.5e-4,3.15452 -5.09926,5.71184 -11.39,5.71179 -6.29054,-10e-5 -11.38983,-2.55738 -11.38948,-5.71179 0.002,-0.16876 0.0185,-0.33739 0.0501,-0.5054 0.54956,2.44592 5.46172,4.31538 11.33936,4.3155 5.88765,-0.001 10.80277,-1.87772 11.33729,-4.32842 z"
         inkscape:label="hole-bottom" /><path
         id="ellipse17523"
         style="display:inline;fill:#060606;fill-opacity:1;stroke-width:13.8402;stroke-linecap:square;stroke-linejoin:bevel;paint-order:stroke markers fill;stop-color:#000000"
         d="m 374.39081,883.97717 c 0,2.62922 -5.0994,4.76062 -11.38983,4.76062 -6.29044,0 -11.38984,-2.1314 -11.38984,-4.76062 1e-5,-2.62921 5.09941,-4.76061 11.38984,-4.76061 6.29042,0 11.38982,2.1314 11.38983,4.76061 z m 251.21838,0 c 0,2.62922 5.0994,4.76062 11.38983,4.76062 6.29044,0 11.38984,-2.1314 11.38984,-4.76062 -10e-6,-2.62921 -5.09941,-4.76061 -11.38984,-4.76061 -6.29042,0 -11.38982,2.1314 -11.38983,4.76061 z"
         inkscape:label="hole-top" /></g><g
       id="g17836"
       style="display:inline"
       inkscape:label="polar-button"
       transform="matrix(1.11197,0,0,1.11197,-55.887538,-53.657833)"><path
         id="path17661"
         style="display:inline;stroke-width:11.621;stroke-linecap:square;stroke-linejoin:bevel;paint-order:stroke markers fill;stop-color:#000000"
         d="m 499.99997,812.87441 a 48.855888,30.078278 0 0 0 -48.85593,30.07827 48.855888,30.078278 0 0 0 48.85593,30.07827 48.855888,30.078278 0 0 0 48.85593,-30.07827 48.855888,30.078278 0 0 0 -48.85593,-30.07827 z m 0,1.83658 a 46.311897,26.685558 0 0 1 46.3119,26.68571 46.311897,26.685558 0 0 1 -46.3119,26.68571 46.311897,26.685558 0 0 1 -46.3119,-26.68571 46.311897,26.685558 0 0 1 46.3119,-26.68571 z"
         inkscape:label="outer" /><path
         id="path17988"
         style="display:inline;fill:#2d2d2d;fill-opacity:1;stroke-width:19.0647;stroke-linecap:square;stroke-linejoin:bevel;paint-order:stroke markers fill;stop-color:#000000"
         d="m 522.70204,824.1001 c 0,3.71147 -15.20947,-0.0606 -22.70204,-0.0606 -8.60558,0 -20.19175,3.64814 -20.19175,-0.89033 0,-2.21955 3.59283,-8.43823 20.19172,-8.43823 16.59883,0 22.70207,6.37318 22.70207,9.38911 z"
         sodipodi:nodetypes="sssss" /><path
         id="path17858"
         style="display:inline;fill:#363636;fill-opacity:1;stroke:none;stroke-width:12.3599;stroke-linecap:square;stroke-linejoin:bevel;stroke-dasharray:none;stroke-opacity:1;paint-order:stroke markers fill;stop-color:#000000"
         d="m 462.20179,850.55641 c 4.19909,10.39783 19.82498,17.72986 37.79821,17.73581 17.97323,-0.006 33.59912,-7.33798 37.79821,-17.73581 -7.9818,6.95008 -22.12845,13.80831 -37.60374,13.81264 -15.47529,-0.004 -30.01088,-6.86256 -37.99268,-13.81264 z"
         sodipodi:nodetypes="ccccc" /><path
         id="path17855"
         style="fill:#232323;stroke-width:11.3448;stroke-linecap:square;stroke-linejoin:bevel;paint-order:stroke markers fill;stop-color:#000000"
         d="M 526.16572,849.77362 A 26.165718,14.59502 0 0 1 500,864.36864 26.165718,14.59502 0 0 1 473.83428,849.77362 26.165718,14.59502 0 0 1 500,835.1786 a 26.165718,14.59502 0 0 1 26.16572,14.59502 z" /><path
         id="path17985"
         style="display:inline;fill:#191919;fill-opacity:1;stroke:none;stroke-width:11.8976;stroke-linecap:square;stroke-linejoin:bevel;stroke-dasharray:none;stroke-opacity:1;paint-order:stroke markers fill;stop-color:#000000"
         d="M 464.97648,844.04651 C 468.86733,833.64868 483.34615,826.31665 500,826.3107 c 16.65385,0.006 31.13267,7.33798 35.02352,17.73581 -7.39587,-6.95008 -20.50405,-13.80831 -34.84333,-13.81264 -14.33927,0.004 -27.80784,6.86256 -35.20371,13.81264 z"
         sodipodi:nodetypes="ccccc" /></g><g
       id="rect1064"
       style="display:inline"
       inkscape:label="screen"
       transform="matrix(1.11197,0,0,1.11197,-55.887538,-53.657833)"><path
         id="path1068"
         style="color:#000000;display:inline;fill:#000000;stroke-linecap:square;stroke-linejoin:bevel;-inkscape-stroke:none;paint-order:stroke markers fill"
         d="m 284.20901,240.56464 c -7.50976,0 -13.73611,6.22842 -13.73611,13.73818 v 493.09342 c 0,7.50977 6.22635,13.7387 13.73611,13.7387 H 715.4199 c 7.50976,0 13.73611,-6.22893 13.73611,-13.7387 V 254.30282 c 0,-7.50976 -6.22635,-13.73818 -13.73611,-13.73818 z m 5.2e-4,5.81102 H 715.4199 c 4.39126,0 7.92613,3.53538 7.92613,7.92665 v 493.09445 c 0,4.39126 -3.53487,7.92664 -7.92613,7.92664 H 284.20953 c -4.39127,0 -7.92614,-3.53538 -7.92614,-7.92664 V 254.30231 c 0,-4.39127 3.53487,-7.92665 7.92614,-7.92665 z"
         inkscape:label="outline" /><path
         id="path1070"
         style="color:#000000;display:inline;fill:#101010;fill-opacity:1;stroke-width:11.621;stroke-linecap:square;stroke-linejoin:bevel;-inkscape-stroke:none;paint-order:stroke markers fill"
         d="M 655.13683,246.37566 C 647.91464,255.01261 503.58762,427.74452 444.05617,511.03909 383.62378,595.59421 293.46037,752.1853 291.65462,755.3234 H 715.4199 c 4.39126,0 7.92613,-3.53538 7.92613,-7.92664 V 254.30231 c 0,-4.39127 -3.53487,-7.92665 -7.92613,-7.92665 z"
         sodipodi:nodetypes="cscssssc"
         inkscape:label="right-black" /><path
         id="path1086"
         style="color:#000000;display:inline;fill:url(#linearGradient1130);fill-opacity:1;stroke-width:11.621;stroke-linecap:square;stroke-linejoin:bevel;-inkscape-stroke:none;paint-order:stroke markers fill"
         d="m 284.20953,246.37566 c -4.39127,0 -7.92614,3.53538 -7.92614,7.92665 v 493.09445 c 0,4.39126 3.53487,7.92664 7.92614,7.92664 h 44.36318 c 1.80575,-3.13811 91.9691,-159.72911 152.40155,-244.28431 59.53151,-83.29465 203.85847,-256.02647 211.08066,-264.66343 z"
         inkscape:label="left-gradient" /><path
         id="rect422"
         style="display:inline;fill-opacity:0.302454;stroke-width:0.994656;stroke-linecap:square;stroke-linejoin:bevel;stop-color:#000000"
         d="m 310.41861,324.20963 h 379.57923 c 8.59633,0 15.51684,6.92051 15.51684,15.51684 V 719.3057 c 0,8.59633 -6.92051,15.51684 -15.51684,15.51684 H 310.41861 c -8.59633,0 -15.51685,-6.92051 -15.51685,-15.51684 V 339.72647 c 0,-8.59633 6.92052,-15.51684 15.51685,-15.51684 z" /></g><path
       id="path12571"
       style="display:inline;fill:url(#linearGradient12577);fill-opacity:1;stroke-width:17.6376;stroke-linecap:square;stroke-linejoin:bevel;paint-order:stroke markers fill;stop-color:#000000"
       d="m 772.81336,250.33278 c 0,0 1.71746,-7.66243 -0.21445,-12.71169 -1.93198,-5.04925 -11.37702,-15.89777 -11.37702,-15.89777 l 0.44131,562.95893 c 0,0 1.46647,0.60157 7.05873,-7.71404 5.59228,-8.3156 4.14479,-15.57642 4.14479,-15.57642 z"
       inkscape:label="outer-bezel-right-verticalgradient"
       sodipodi:nodetypes="czcczcc" /><path
       id="path15212"
       style="display:inline;fill:url(#linearGradient15216);fill-opacity:1;stroke-width:17.6376;stroke-linecap:square;stroke-linejoin:bevel;paint-order:stroke markers fill;stop-color:#000000"
       d="m 774.62623,250.3328 c 0,0 -0.0954,-7.66245 -2.02732,-12.71171 -1.93198,-5.04925 -11.37702,-15.89777 -11.37702,-15.89777 l 0.44131,562.95893 c 0,0 1.46647,0.60157 7.05873,-7.71404 5.59228,-8.3156 6.07238,-15.43122 6.07238,-15.43122 z"
       inkscape:label="outer-bezel-right-hotizontalgradient"
       sodipodi:nodetypes="czcczcc" /><path
       id="rect9858"
       style="display:inline;fill:url(#linearGradient9868);fill-opacity:1;stroke-width:17.6376;stroke-linecap:square;stroke-linejoin:bevel;paint-order:stroke markers fill;stop-color:#000000"
       d="m 227.38122,250.33278 c 0,0 0.60694,-10.32187 2.53885,-15.37113 1.93198,-5.04926 9.05299,-13.23833 9.05299,-13.23833 l -0.4371,562.9589 c 0,0 -0.94762,-0.89633 -5.31257,-7.68974 -4.36496,-6.7934 -6.01025,-15.45551 -6.01025,-15.45551 z"
       inkscape:label="outer-bezel-left"
       sodipodi:nodetypes="czcczcc" /><path
       id="rect366"
       style="display:inline;fill:url(#linearGradient1048);fill-opacity:1;stroke-width:2.74941;stroke-linecap:square;stroke-linejoin:bevel;stop-color:#000000"
       d="m 238.97306,221.72332 h 9.12872 c 0,0 -3.01877,188.57485 -3.01877,282.34239 0,93.76753 2.07889,280.45914 2.07889,280.45914 l -8.62595,0.15735 c 0,0 -1.59806,-186.92869 -1.59806,-280.69622 0,-93.76754 2.03517,-282.26266 2.03517,-282.26266 z m 522.24883,0 h -9.12872 c 0,0 3.01877,188.57485 3.01877,282.34239 0,93.76753 -2.07889,280.45914 -2.07889,280.45914 l 8.62595,0.15735 c 0,0 1.59806,-186.92869 1.59806,-280.69622 0,-93.76754 -2.03517,-282.26266 -2.03517,-282.26266 z"
       sodipodi:nodetypes="cczcczc"
       inkscape:label="inner-bezel" /><path
       id="rect1188"
       style="display:inline;fill:url(#linearGradient1199);fill-opacity:1;stroke-width:229.024;stroke-linecap:square;stroke-linejoin:bevel;paint-order:stroke markers fill;stop-color:#000000"
       d="m 293.86448,5.5372638 c 0,0 68.64848,-4.90204406 102.82286,-5.21965393 C 430.86172,0 500.09748,2.3706059e-6 500.09748,2.3706059e-6 V 214.23405 l -261.77422,-0.90306 c 0,0 -0.3623,-47.68463 13.21468,-110.19285 13.57696,-62.50823 28.14315,-87.854426 28.14315,-87.854426 0,0 1.66914,-3.159817 6.29695,-6.3399172 4.62781,-3.180101 7.88644,-3.406533 7.88644,-3.406533 z m 412.46599,0 c 0,0 -68.63571,-4.90138422 -102.82286,-5.21965393 C 569.39134,0 500.09748,2.3706059e-6 500.09748,2.3706059e-6 V 214.23405 l 261.77421,-0.90306 c 0,0 0.3623,-47.68463 -13.21468,-110.19285 -13.57696,-62.50823 -28.14315,-87.854426 -28.14315,-87.854426 0,0 -1.66914,-3.159817 -6.29695,-6.3399172 -4.62781,-3.180101 -7.88644,-3.406533 -7.88644,-3.406533 z"
       sodipodi:nodetypes="czccczczccscccscsc"
       inkscape:label="top-inner-wristband" /><path
       id="rect17112"
       style="display:inline;fill:#000000;stroke-width:19.4824;stroke-linecap:square;stroke-linejoin:bevel;paint-order:stroke markers fill;stop-color:#000000"
       inkscape:label="black-outline"
       d="m 238.96563,213.3332 h 261.13185 v 6.97133 h -239.95254 -8.04146 l -4.1303,9.63256 0.1286,-8.21377 h -9.12835 l -2.14155,434.69327 v 0 l -1.83435,-146.53731 2.14477,-279.77309 c 0,-3.90779 0.60664,-6.92572 0.60664,-6.92572 -1.6602,1.93334 -5.35671,6.79612 -6.66574,9.36206 -1.77859,3.48641 -2.78913,8.68043 -2.78913,8.68043 l -0.96584,520.16883 -0.25741,-14.7695 -0.4943,-505.39995 c 0,0 0.79905,-3.42903 2.3589,-7.9035 1.78396,-5.11737 4.41942,-11.50294 5.52104,-13.98282 2.06486,-4.64819 4.5092,-6.00283 4.5092,-6.00283 z m 522.26369,0 H 500.09748 v 6.97133 h 239.95253 8.04146 l 4.1303,9.63256 -0.1286,-8.21377 h 9.12835 l 2.14155,434.69327 v 0 l 1.83435,-146.53731 -2.14476,-279.77309 c 0,-3.90779 -0.60665,-6.92572 -0.60665,-6.92572 1.6602,1.93334 5.35671,6.79612 6.66574,9.36206 1.77859,3.48641 2.78913,8.68043 2.78913,8.68043 l 0.96584,520.16883 0.25741,-14.7695 0.4943,-505.39995 c 0,0 -0.79905,-3.42903 -2.3589,-7.9035 -1.78396,-5.11737 -4.41942,-11.50294 -5.52104,-13.98282 -2.06486,-4.64819 -4.5092,-6.00283 -4.5092,-6.00283 z"
       sodipodi:nodetypes="cccccccccccccsccccsscc" /><path
       id="path18045"
       style="display:inline;fill:#000000;fill-opacity:1;stroke:none;stroke-width:16.6794;stroke-linecap:square;stroke-linejoin:bevel;stroke-dasharray:none;stroke-opacity:1;paint-order:stroke markers fill;stop-color:#000000"
       d="m 500.09744,850.23416 a 46.942031,30.694814 0 0 0 -46.9418,30.69482 46.942031,30.694814 0 0 0 46.9418,30.69482 43.818815,29.673697 0 0 1 -43.81871,-29.67371 43.818815,29.673697 0 0 1 43.81871,-29.67371 43.818815,29.673697 0 0 1 43.81872,29.67371 43.818815,29.673697 0 0 1 -43.81872,29.67371 46.942031,30.694814 0 0 0 46.94182,-30.69482 46.942031,30.694814 0 0 0 -46.94182,-30.69482 z"
       inkscape:export-filename="../../../Git/asteroidos.org/assets/public/img/pike.png"
       inkscape:export-xdpi="8.5816317"
       inkscape:export-ydpi="8.5816317" /></g></svg>
